<svg width="61" height="40" viewBox="0 0 61 40" fill="none" xmlns="http://www.w3.org/2000/svg">
<path d="M51.1254 3.53629C49.9789 2.41518 48.6176 1.52584 47.1193 0.919073C45.621 0.312305 44.015 0 42.3932 0C40.7714 0 39.1654 0.312305 37.6671 0.919073C36.1688 1.52584 34.8075 2.41518 33.661 3.53629L31.2815 5.86189L28.902 3.53629C26.5861 1.27279 23.445 0.00117325 20.1698 0.00117327C16.8946 0.0011733 13.7535 1.27279 11.4376 3.53629C9.12163 5.79979 7.82056 8.86975 7.82056 12.0708C7.82056 15.2719 9.12163 18.3418 11.4376 20.6053L13.817 22.9309L31.2815 40L48.7459 22.9309L51.1254 20.6053C52.2725 19.4848 53.1824 18.1543 53.8033 16.6899C54.4241 15.2255 54.7436 13.6559 54.7436 12.0708C54.7436 10.4857 54.4241 8.91612 53.8033 7.45174C53.1824 5.98736 52.2725 4.65687 51.1254 3.53629Z" fill="url(#paint0_linear_409_603)"/>
<g filter="url(#filter0_b_409_603)">
<path d="M25.4167 29.2308C24.971 29.2304 24.5332 29.1147 24.1473 28.8953C23.7614 28.6759 23.441 28.3605 23.2181 27.9809L18.8846 20.3185L16.1142 24.4059C15.8757 24.7441 15.5561 25.0192 15.1837 25.2067C14.8112 25.3942 14.3975 25.4884 13.9792 25.4809H2.54167C1.86757 25.4809 1.22109 25.2175 0.744437 24.7487C0.267782 24.2799 0 23.644 0 22.981C0 22.3179 0.267782 21.6821 0.744437 21.2132C1.22109 20.7444 1.86757 20.481 2.54167 20.481H12.6194L16.9529 14.0937C17.195 13.7378 17.526 13.449 17.9142 13.2551C18.3023 13.0612 18.7346 12.9685 19.1696 12.9861C19.6046 13.0037 20.0277 13.1308 20.3983 13.3554C20.769 13.58 21.0748 13.8945 21.2865 14.2687L25.4167 21.731L32.0631 10.4813C32.2902 10.0942 32.6187 9.77403 33.0143 9.55419C33.4099 9.33435 33.8582 9.22285 34.3125 9.23128C34.7561 9.23391 35.1912 9.35067 35.5747 9.56996C35.9581 9.78924 36.2766 10.1034 36.4983 10.4813L42.5856 20.481L45.1273 18.5061C45.5778 18.1621 46.1328 17.9772 46.7031 17.9811H58.4583C59.1324 17.9811 59.7789 18.2445 60.2556 18.7133C60.7322 19.1821 61 19.818 61 20.481C61 21.1441 60.7322 21.7799 60.2556 22.2488C59.7789 22.7176 59.1324 22.981 58.4583 22.981H47.5927L43.4625 26.1934C43.1779 26.4237 42.8459 26.5903 42.4893 26.6818C42.1327 26.7733 41.7602 26.7874 41.3975 26.7232C41.0349 26.659 40.6907 26.518 40.389 26.3099C40.0872 26.1019 39.8351 25.8318 39.65 25.5184L34.3125 16.6561L27.6152 27.9809C27.3924 28.3605 27.0719 28.6759 26.686 28.8953C26.3001 29.1147 25.8624 29.2304 25.4167 29.2308Z" fill="white" fill-opacity="0.2"/>
</g>
<defs>
<filter id="filter0_b_409_603" x="-13.8889" y="-4.65805" width="88.7778" height="47.7778" filterUnits="userSpaceOnUse" color-interpolation-filters="sRGB">
<feFlood flood-opacity="0" result="BackgroundImageFix"/>
<feGaussianBlur in="BackgroundImageFix" stdDeviation="6.94444"/>
<feComposite in2="SourceAlpha" operator="in" result="effect1_backgroundBlur_409_603"/>
<feBlend mode="normal" in="SourceGraphic" in2="effect1_backgroundBlur_409_603" result="shape"/>
</filter>
<linearGradient id="paint0_linear_409_603" x1="7.82056" y1="18.6667" x2="53.6187" y2="18.9064" gradientUnits="userSpaceOnUse">
<stop stop-color="#FF7070"/>
<stop offset="1" stop-color="#FF7070" stop-opacity="0.65"/>
</linearGradient>
</defs>
</svg>
